<svg width="42" height="43" viewBox="0 0 42 43" fill="none" xmlns="http://www.w3.org/2000/svg">
<rect x="25.5352" width="21.6419" height="38.2896" rx="10.821" transform="rotate(41.8264 25.5352 0)" fill="#00BD83"/>
<path fill-rule="evenodd" clip-rule="evenodd" d="M27.2619 16.6205C27.4611 16.8198 27.573 17.09 27.573 17.3717C27.573 17.6534 27.4611 17.9236 27.2619 18.1229L19.2981 26.0867C19.1929 26.192 19.0679 26.2755 18.9304 26.3324C18.7929 26.3894 18.6455 26.4187 18.4967 26.4187C18.3478 26.4187 18.2004 26.3894 18.0629 26.3324C17.9254 26.2755 17.8004 26.192 17.6952 26.0867L13.7384 22.1306C13.637 22.0326 13.556 21.9154 13.5003 21.7858C13.4446 21.6561 13.4153 21.5167 13.4141 21.3756C13.4129 21.2346 13.4398 21.0946 13.4932 20.9641C13.5466 20.8335 13.6255 20.7149 13.7253 20.6151C13.825 20.5153 13.9437 20.4364 14.0742 20.383C14.2048 20.3296 14.3447 20.3027 14.4858 20.3039C14.6269 20.3052 14.7663 20.3345 14.8959 20.3902C15.0256 20.4458 15.1428 20.5268 15.2408 20.6283L18.4963 23.8838L25.7588 16.6205C25.8575 16.5218 25.9747 16.4435 26.1036 16.39C26.2326 16.3366 26.3708 16.3091 26.5104 16.3091C26.65 16.3091 26.7882 16.3366 26.9171 16.39C27.0461 16.4435 27.1633 16.5218 27.2619 16.6205Z" fill="white"/>
</svg>
