<svg width="13" height="17" viewBox="0 0 13 17" fill="none" xmlns="http://www.w3.org/2000/svg">
<path d="M6.50065 0.583252C3.4369 0.583252 0.958984 3.06117 0.958984 6.12492C0.958984 10.2812 6.50065 16.4166 6.50065 16.4166C6.50065 16.4166 12.0423 10.2812 12.0423 6.12492C12.0423 3.06117 9.5644 0.583252 6.50065 0.583252ZM6.50065 8.10408C5.97574 8.10408 5.47233 7.89557 5.10117 7.5244C4.73 7.15323 4.52148 6.64983 4.52148 6.12492C4.52148 5.60001 4.73 5.0966 5.10117 4.72544C5.47233 4.35427 5.97574 4.14575 6.50065 4.14575C7.02556 4.14575 7.52897 4.35427 7.90013 4.72544C8.2713 5.0966 8.47982 5.60001 8.47982 6.12492C8.47982 6.64983 8.2713 7.15323 7.90013 7.5244C7.52897 7.89557 7.02556 8.10408 6.50065 8.10408Z" fill="#00BD83"/>
</svg>
